<svg width="258" height="302" viewBox="0 0 258 302" fill="none" xmlns="http://www.w3.org/2000/svg">
<path fill-rule="evenodd" clip-rule="evenodd" d="M235.806 48.5L258 41V5.05923L257.126 2.29965L253.585 0H245.736H237.888H207.965H144.685H141.251L136.345 1.37979L134 5.05923V123L222.477 139H133.434L133.934 183.001L211.934 211.5L133.934 189.501L133.934 193.001V196.501L133.434 200.001L132.434 205.001L132.082 207.108L132.001 207L131.001 210.5L129.001 213.5L127.001 215.5L124.001 217L121.501 217.5H119.001L116.001 217L112.501 215L109.304 209.52L109 208L108.5 200L107.5 195.5L106.5 193L105 191L103.5 190L102 189L100.5 188.5H3.5L1.5 190.5L0 194V200.5V215.5H48.645V221.135C48.645 222.363 48.3524 223.452 47.7672 224.402C47.2271 225.328 46.4844 226.116 45.5391 226.764C44.6388 227.39 43.581 227.865 42.3657 228.189C41.1953 228.514 40.0025 228.676 38.7871 228.676C38.0362 228.676 37.2472 228.76 36.4436 228.846C34.7904 229.022 33.075 229.206 31.5 228.676C29.7877 228.088 28.4232 226.599 27.1305 225.187C26.6901 224.706 26.258 224.235 25.8234 223.811L1.5 224L4 235L5.5 239.934L13 255.5L22.5 268.5C22.5 268.5 29.5 275.5 37 280.5L44.5 285.5L52 289C52 290.5 75 297 75 297C75 297 90.6778 300.5 91.8575 299C93.758 296.584 92.5118 247.567 92.0265 228.475C91.9255 224.505 91.8575 221.829 91.8575 221.135V215.5H108.019L101.001 262L96.0006 286.5L93.5006 300L103.001 301L128.501 302V296.5L156.001 294L160.501 299L171.501 296.5L180.501 294L194.501 289.5L185.501 278L177.501 267.5L135.239 211.306L141.934 218.001L152.934 230.501L197.871 289.5L228.934 269L189.434 230.501L239.934 256.5L249.5 236.5L252.934 224L255 213.5L255.5 200.001L255.5 183.001V161L255.5 144.972L255.655 145L256.2 86.686L235.806 80.8253V48.5ZM204.432 54.5V76.1168L176.57 71.1767V62L204.432 54.5ZM140.001 262H128.501V250L132.001 248.5L140.001 262Z" fill="white"/>
</svg>
