<svg width="500" height="1308" viewBox="0 0 500 1308" fill="none" xmlns="http://www.w3.org/2000/svg">
<path d="M81.3895 986.066L5.43666 996.868L0 945.156L75.9528 934.353C97.7712 931.25 115.084 919.068 127.89 897.808C140.697 876.547 145.439 850.116 142.116 818.514L60.7173 44.2643L105.178 37.9409L186.576 812.19C191.359 857.678 183.578 896.934 163.234 929.958C142.839 962.504 115.558 981.206 81.3895 986.066ZM92.2628 1089.49L16.31 1100.29L10.8733 1048.58L86.8261 1037.78C132.933 1031.22 169.902 1005.31 197.733 960.042C225.976 914.717 237.077 863.325 231.037 805.867L149.638 31.6174L194.098 25.2939L275.497 799.543C283.048 871.366 268.908 935.582 233.077 992.192C197.658 1048.74 150.72 1081.18 92.2628 1089.49ZM103.136 1192.92L27.1833 1203.72L21.7467 1152.01L97.6995 1141.2C168.506 1131.13 225.413 1092.18 268.421 1024.34C311.839 956.448 329.018 879.407 319.957 793.22L238.558 18.9704L283.018 12.647L364.417 786.896C371.314 852.495 364.328 915.207 343.459 975.035C322.951 1034.33 291.356 1083.53 248.672 1122.65C205.988 1161.76 157.476 1185.19 103.136 1192.92ZM114.009 1296.34L38.0567 1307.14L32.62 1255.43L108.573 1244.63C155.503 1237.95 199.011 1220.59 239.097 1192.53C279.184 1164.47 312.52 1129.85 339.108 1088.64C366.056 1046.9 385.894 999.13 398.621 945.32C411.348 891.511 414.767 836.595 408.877 780.573L327.478 6.32348L371.939 0L453.338 774.25C459.982 837.454 456.033 899.248 441.491 959.634C427.36 1019.96 405.013 1073.68 374.451 1120.79C344.251 1167.37 306.351 1206.29 260.754 1237.56C215.618 1269.25 166.703 1288.85 114.009 1296.34Z" fill="white"/>
<path d="M77.93 989.191H7.39614V941.168H77.93C98.1918 941.168 115.204 932.275 128.967 914.489C142.729 896.702 149.611 873.136 149.611 843.788V124.779H190.899V843.788C190.899 886.031 180.003 920.936 158.212 948.505C136.422 975.629 109.661 989.191 77.93 989.191ZM77.93 1085.24H7.39614V1037.21H77.93C120.747 1037.21 157.066 1018.32 186.885 980.52C217.086 942.724 232.187 897.147 232.187 843.788V124.779H273.475V843.788C273.475 910.487 254.36 967.403 216.131 1014.54C178.283 1061.67 132.216 1085.24 77.93 1085.24ZM77.93 1181.28H7.39614V1133.26H77.93C143.685 1133.26 199.501 1105.02 245.376 1048.55C291.634 992.081 314.763 923.827 314.763 843.788V124.779H356.051V843.788C356.051 904.706 343.627 961.178 318.777 1013.2C294.31 1064.78 260.668 1105.69 217.851 1135.93C175.034 1166.16 128.393 1181.28 77.93 1181.28ZM77.93 1277.33H7.39614V1229.31H77.93C121.512 1229.31 162.991 1219.08 202.368 1198.62C241.744 1178.17 275.578 1150.82 303.868 1116.59C332.54 1081.9 355.287 1040.77 372.108 993.193C388.929 945.615 397.34 895.813 397.34 843.788V124.779H438.628V843.788C438.628 902.483 429.07 958.51 409.955 1011.87C391.223 1065.23 365.609 1111.47 333.114 1150.6C301.001 1189.29 262.58 1219.97 217.851 1242.65C173.504 1265.77 126.864 1277.33 77.93 1277.33Z" fill="black"/>
<path d="M113.857 1017.11L47.7554 1011.8L50.4282 966.796L116.53 972.107C135.518 973.632 151.956 966.579 165.844 950.947C179.732 935.314 187.493 913.747 189.126 886.244L229.145 212.416L267.838 215.525L227.82 889.352C225.469 928.94 213.315 960.832 191.359 985.027C169.428 1008.81 143.594 1019.5 113.857 1017.11ZM108.511 1107.12L42.4097 1101.81L45.0825 1056.81L111.184 1062.12C151.311 1065.34 186.399 1050.37 216.448 1017.19C246.855 984.043 263.544 942.467 266.513 892.461L306.532 218.633L345.226 221.742L305.207 895.57C301.495 958.077 280.413 1009.98 241.962 1051.27C203.87 1092.59 159.386 1111.21 108.511 1107.12ZM103.166 1197.13L37.0639 1191.82L39.7368 1146.82L105.838 1152.13C167.462 1157.08 221.341 1134.82 267.477 1085.35C313.971 1035.91 339.446 973.688 343.901 898.679L383.919 224.851L422.613 227.96L382.594 901.788C379.204 958.878 364.417 1010.86 338.233 1057.75C312.433 1104.25 278.628 1140.05 236.818 1165.16C195.009 1190.28 150.458 1200.93 103.166 1197.13ZM97.8198 1287.14L31.7182 1281.83L34.3911 1236.83L100.493 1242.14C141.336 1245.42 180.778 1238.96 218.819 1222.75C256.859 1206.55 290.089 1183.47 318.506 1153.51C347.307 1123.17 370.914 1086.33 389.326 1043.01C407.738 999.691 418.392 953.652 421.288 904.897L461.306 231.069L500 234.178L459.981 908.005C456.715 963.012 444.639 1014.8 423.756 1063.36C403.231 1111.96 376.652 1153.37 344.021 1187.59C311.773 1221.43 274.059 1247.29 230.879 1265.17C188.032 1283.5 143.679 1290.83 97.8198 1287.14Z" fill="#ADADAD"/>
</svg>
